<mxfile host="app.diagrams.net" modified="2023-07-31T15:46:58.034Z" agent="Mozilla/5.0 (Windows NT 10.0; Win64; x64) AppleWebKit/537.36 (KHTML, like Gecko) Chrome/115.0.0.0 Safari/537.36 Edg/115.0.1901.188" etag="-_gWDpegTYNUxi6juM-R" version="21.6.6" type="github">
  <diagram name="Page-1" id="bfe91b75-5d2c-26a0-9c1d-138518896778">
    <mxGraphModel dx="2909" dy="1509" grid="1" gridSize="10" guides="1" tooltips="1" connect="1" arrows="1" fold="1" page="1" pageScale="1" pageWidth="1100" pageHeight="850" background="none" math="0" shadow="0">
      <root>
        <mxCell id="0" />
        <mxCell id="1" parent="0" />
        <mxCell id="vVRaeqYQq7h0Rnx18Put-45" style="edgeStyle=orthogonalEdgeStyle;rounded=0;orthogonalLoop=1;jettySize=auto;html=1;entryX=0.542;entryY=1.106;entryDx=0;entryDy=0;entryPerimeter=0;" edge="1" parent="1" source="vVRaeqYQq7h0Rnx18Put-1" target="vVRaeqYQq7h0Rnx18Put-44">
          <mxGeometry relative="1" as="geometry" />
        </mxCell>
        <mxCell id="vVRaeqYQq7h0Rnx18Put-1" value="" style="rounded=1;whiteSpace=wrap;html=1;" vertex="1" parent="1">
          <mxGeometry x="280" y="270" width="860" height="570" as="geometry" />
        </mxCell>
        <mxCell id="vVRaeqYQq7h0Rnx18Put-2" value="&lt;font face=&quot;Georgia&quot; style=&quot;font-size: 48px;&quot;&gt;Transformer-1&lt;/font&gt;" style="rounded=1;whiteSpace=wrap;html=1;" vertex="1" parent="1">
          <mxGeometry x="330" y="730" width="770" height="60" as="geometry" />
        </mxCell>
        <mxCell id="vVRaeqYQq7h0Rnx18Put-3" value="&lt;font face=&quot;Georgia&quot; style=&quot;font-size: 48px;&quot;&gt;Transformer-7&lt;/font&gt;" style="rounded=1;whiteSpace=wrap;html=1;" vertex="1" parent="1">
          <mxGeometry x="335" y="400" width="770" height="60" as="geometry" />
        </mxCell>
        <mxCell id="vVRaeqYQq7h0Rnx18Put-4" value="&lt;font face=&quot;Georgia&quot; style=&quot;font-size: 48px;&quot;&gt;Transformer-8&lt;/font&gt;" style="rounded=1;whiteSpace=wrap;html=1;" vertex="1" parent="1">
          <mxGeometry x="335" y="320" width="770" height="60" as="geometry" />
        </mxCell>
        <mxCell id="vVRaeqYQq7h0Rnx18Put-13" style="edgeStyle=orthogonalEdgeStyle;rounded=0;orthogonalLoop=1;jettySize=auto;html=1;entryX=0;entryY=0.5;entryDx=0;entryDy=0;" edge="1" parent="1" source="vVRaeqYQq7h0Rnx18Put-5" target="vVRaeqYQq7h0Rnx18Put-7">
          <mxGeometry relative="1" as="geometry" />
        </mxCell>
        <mxCell id="vVRaeqYQq7h0Rnx18Put-5" value="&lt;font face=&quot;Georgia&quot; style=&quot;font-size: 48px;&quot;&gt;Q&lt;/font&gt;" style="rounded=0;whiteSpace=wrap;html=1;" vertex="1" parent="1">
          <mxGeometry x="360" y="1150" width="120" height="60" as="geometry" />
        </mxCell>
        <mxCell id="vVRaeqYQq7h0Rnx18Put-14" style="edgeStyle=orthogonalEdgeStyle;rounded=0;orthogonalLoop=1;jettySize=auto;html=1;entryX=1;entryY=0.5;entryDx=0;entryDy=0;" edge="1" parent="1" source="vVRaeqYQq7h0Rnx18Put-6" target="vVRaeqYQq7h0Rnx18Put-7">
          <mxGeometry relative="1" as="geometry" />
        </mxCell>
        <mxCell id="vVRaeqYQq7h0Rnx18Put-6" value="&lt;font style=&quot;font-size: 48px;&quot; face=&quot;Georgia&quot;&gt;R&lt;/font&gt;" style="rounded=0;whiteSpace=wrap;html=1;" vertex="1" parent="1">
          <mxGeometry x="680" y="1160" width="120" height="60" as="geometry" />
        </mxCell>
        <mxCell id="vVRaeqYQq7h0Rnx18Put-12" style="edgeStyle=orthogonalEdgeStyle;rounded=0;orthogonalLoop=1;jettySize=auto;html=1;entryX=0.5;entryY=1;entryDx=0;entryDy=0;" edge="1" parent="1" source="vVRaeqYQq7h0Rnx18Put-7" target="vVRaeqYQq7h0Rnx18Put-10">
          <mxGeometry relative="1" as="geometry" />
        </mxCell>
        <mxCell id="vVRaeqYQq7h0Rnx18Put-7" value="&lt;font style=&quot;font-size: 24px;&quot;&gt;Word Embedding&lt;/font&gt;" style="rounded=0;whiteSpace=wrap;html=1;" vertex="1" parent="1">
          <mxGeometry x="480" y="1070" width="210" height="60" as="geometry" />
        </mxCell>
        <mxCell id="vVRaeqYQq7h0Rnx18Put-11" value="" style="edgeStyle=orthogonalEdgeStyle;rounded=0;orthogonalLoop=1;jettySize=auto;html=1;" edge="1" parent="1" source="vVRaeqYQq7h0Rnx18Put-8" target="vVRaeqYQq7h0Rnx18Put-10">
          <mxGeometry relative="1" as="geometry" />
        </mxCell>
        <mxCell id="vVRaeqYQq7h0Rnx18Put-8" value="&lt;font face=&quot;Georgia&quot; style=&quot;font-size: 36px;&quot;&gt;PD&lt;/font&gt;" style="rounded=0;whiteSpace=wrap;html=1;" vertex="1" parent="1">
          <mxGeometry x="90" y="960" width="120" height="60" as="geometry" />
        </mxCell>
        <mxCell id="vVRaeqYQq7h0Rnx18Put-42" style="edgeStyle=orthogonalEdgeStyle;rounded=0;orthogonalLoop=1;jettySize=auto;html=1;entryX=0.5;entryY=1;entryDx=0;entryDy=0;" edge="1" parent="1" source="vVRaeqYQq7h0Rnx18Put-10" target="vVRaeqYQq7h0Rnx18Put-1">
          <mxGeometry relative="1" as="geometry" />
        </mxCell>
        <mxCell id="vVRaeqYQq7h0Rnx18Put-10" value="&lt;font style=&quot;font-size: 36px;&quot;&gt;Dataset&lt;/font&gt;" style="whiteSpace=wrap;html=1;rounded=0;" vertex="1" parent="1">
          <mxGeometry x="650" y="890" width="230" height="60" as="geometry" />
        </mxCell>
        <mxCell id="vVRaeqYQq7h0Rnx18Put-22" style="edgeStyle=orthogonalEdgeStyle;rounded=0;orthogonalLoop=1;jettySize=auto;html=1;entryX=0.5;entryY=0;entryDx=0;entryDy=0;" edge="1" parent="1" source="vVRaeqYQq7h0Rnx18Put-21" target="vVRaeqYQq7h0Rnx18Put-8">
          <mxGeometry relative="1" as="geometry" />
        </mxCell>
        <mxCell id="vVRaeqYQq7h0Rnx18Put-21" value="&lt;font face=&quot;Georgia&quot; style=&quot;font-size: 36px;&quot;&gt;D&lt;/font&gt;" style="rounded=0;whiteSpace=wrap;html=1;" vertex="1" parent="1">
          <mxGeometry x="-20" y="780" width="120" height="60" as="geometry" />
        </mxCell>
        <mxCell id="vVRaeqYQq7h0Rnx18Put-26" style="edgeStyle=orthogonalEdgeStyle;rounded=0;orthogonalLoop=1;jettySize=auto;html=1;entryX=0.5;entryY=0;entryDx=0;entryDy=0;" edge="1" parent="1" source="vVRaeqYQq7h0Rnx18Put-23" target="vVRaeqYQq7h0Rnx18Put-21">
          <mxGeometry relative="1" as="geometry">
            <mxPoint y="750" as="targetPoint" />
          </mxGeometry>
        </mxCell>
        <mxCell id="vVRaeqYQq7h0Rnx18Put-23" value="&lt;font face=&quot;Georgia&quot; style=&quot;font-size: 36px;&quot;&gt;P&lt;/font&gt;" style="rounded=0;whiteSpace=wrap;html=1;" vertex="1" parent="1">
          <mxGeometry x="-120" y="650" width="60" height="60" as="geometry" />
        </mxCell>
        <mxCell id="vVRaeqYQq7h0Rnx18Put-25" style="edgeStyle=orthogonalEdgeStyle;rounded=0;orthogonalLoop=1;jettySize=auto;html=1;" edge="1" parent="1" source="vVRaeqYQq7h0Rnx18Put-24">
          <mxGeometry relative="1" as="geometry">
            <mxPoint x="40" y="780" as="targetPoint" />
          </mxGeometry>
        </mxCell>
        <mxCell id="vVRaeqYQq7h0Rnx18Put-24" value="&lt;font face=&quot;Georgia&quot; style=&quot;font-size: 36px;&quot;&gt;z&lt;/font&gt;" style="rounded=0;whiteSpace=wrap;html=1;" vertex="1" parent="1">
          <mxGeometry x="130" y="650" width="60" height="60" as="geometry" />
        </mxCell>
        <mxCell id="vVRaeqYQq7h0Rnx18Put-28" style="edgeStyle=orthogonalEdgeStyle;rounded=0;orthogonalLoop=1;jettySize=auto;html=1;" edge="1" parent="1" source="vVRaeqYQq7h0Rnx18Put-27" target="vVRaeqYQq7h0Rnx18Put-8">
          <mxGeometry relative="1" as="geometry" />
        </mxCell>
        <mxCell id="vVRaeqYQq7h0Rnx18Put-27" value="&lt;font face=&quot;Georgia&quot; style=&quot;font-size: 36px;&quot;&gt;E(Q)&lt;/font&gt;" style="rounded=0;whiteSpace=wrap;html=1;" vertex="1" parent="1">
          <mxGeometry x="-130" y="960" width="120" height="60" as="geometry" />
        </mxCell>
        <mxCell id="vVRaeqYQq7h0Rnx18Put-30" style="edgeStyle=orthogonalEdgeStyle;rounded=0;orthogonalLoop=1;jettySize=auto;html=1;entryX=0.5;entryY=1;entryDx=0;entryDy=0;" edge="1" parent="1" source="vVRaeqYQq7h0Rnx18Put-29" target="vVRaeqYQq7h0Rnx18Put-8">
          <mxGeometry relative="1" as="geometry" />
        </mxCell>
        <mxCell id="vVRaeqYQq7h0Rnx18Put-29" value="&lt;font face=&quot;Georgia&quot; style=&quot;font-size: 36px;&quot;&gt;E(R)&lt;/font&gt;" style="rounded=0;whiteSpace=wrap;html=1;" vertex="1" parent="1">
          <mxGeometry x="90" y="1100" width="120" height="60" as="geometry" />
        </mxCell>
        <mxCell id="vVRaeqYQq7h0Rnx18Put-40" value="" style="edgeStyle=orthogonalEdgeStyle;rounded=0;orthogonalLoop=1;jettySize=auto;html=1;" edge="1" parent="1" source="vVRaeqYQq7h0Rnx18Put-33" target="vVRaeqYQq7h0Rnx18Put-39">
          <mxGeometry relative="1" as="geometry" />
        </mxCell>
        <mxCell id="vVRaeqYQq7h0Rnx18Put-33" value="&lt;font face=&quot;Georgia&quot; style=&quot;font-size: 24px;&quot;&gt;[SOP]-[Z]-[EOP]&lt;/font&gt;" style="rounded=1;whiteSpace=wrap;html=1;" vertex="1" parent="1">
          <mxGeometry x="-140" y="370" width="400" height="60" as="geometry" />
        </mxCell>
        <mxCell id="vVRaeqYQq7h0Rnx18Put-37" value="" style="shape=flexArrow;endArrow=classic;html=1;rounded=0;" edge="1" parent="1">
          <mxGeometry width="50" height="50" relative="1" as="geometry">
            <mxPoint x="714.41" y="660" as="sourcePoint" />
            <mxPoint x="714.41" y="490" as="targetPoint" />
          </mxGeometry>
        </mxCell>
        <mxCell id="vVRaeqYQq7h0Rnx18Put-43" style="edgeStyle=orthogonalEdgeStyle;rounded=0;orthogonalLoop=1;jettySize=auto;html=1;entryX=0.5;entryY=0;entryDx=0;entryDy=0;" edge="1" parent="1" source="vVRaeqYQq7h0Rnx18Put-39" target="vVRaeqYQq7h0Rnx18Put-24">
          <mxGeometry relative="1" as="geometry" />
        </mxCell>
        <mxCell id="vVRaeqYQq7h0Rnx18Put-39" value="&lt;font face=&quot;Georgia&quot; style=&quot;font-size: 36px;&quot;&gt;E_B&lt;/font&gt;" style="whiteSpace=wrap;html=1;rounded=1;" vertex="1" parent="1">
          <mxGeometry y="510" width="120" height="60" as="geometry" />
        </mxCell>
        <mxCell id="vVRaeqYQq7h0Rnx18Put-44" value="&lt;font style=&quot;font-size: 48px;&quot;&gt;Output&lt;/font&gt;" style="rounded=1;whiteSpace=wrap;html=1;" vertex="1" parent="1">
          <mxGeometry x="520" y="170" width="350" height="50" as="geometry" />
        </mxCell>
      </root>
    </mxGraphModel>
  </diagram>
</mxfile>
